<svg width="29" height="29" viewBox="0 0 29 29" fill="none" xmlns="http://www.w3.org/2000/svg">
<path d="M11.903 13.319C12.1494 13.1406 12.2684 12.8461 12.2684 12.4411C12.2769 12.2485 12.2372 12.0588 12.1522 11.886C12.0758 11.7473 11.9625 11.6312 11.8237 11.549C11.6798 11.4618 11.52 11.404 11.3536 11.3791C11.1724 11.3451 10.9883 11.3281 10.807 11.331H8.81611V13.5881H10.9713C11.3423 13.5909 11.6566 13.5003 11.903 13.319ZM12.2372 15.3581C11.9597 15.1457 11.5887 15.0409 11.1271 15.0409H8.81045V17.703H11.0817C11.2941 17.703 11.4896 17.6832 11.6793 17.6436C11.8588 17.6084 12.03 17.5392 12.1834 17.4396C12.3278 17.3462 12.4439 17.2188 12.5317 17.0545C12.6167 16.8902 12.6592 16.6807 12.6592 16.4286C12.6592 15.9273 12.5176 15.5733 12.2372 15.3581ZM14.5 1.8125C7.49356 1.8125 1.8125 7.49356 1.8125 14.5C1.8125 21.5064 7.49356 27.1875 14.5 27.1875C21.5064 27.1875 27.1875 21.5064 27.1875 14.5C27.1875 7.49356 21.5064 1.8125 14.5 1.8125ZM16.9497 9.9376H20.8692V10.892H16.9497V9.9376ZM14.5 17.8078C14.3167 18.1558 14.0549 18.4564 13.7354 18.6857C13.4012 18.918 13.0302 19.0879 12.6365 19.187C12.2247 19.2974 11.7998 19.3517 11.3734 19.3484H6.68359V9.68838H11.2432C11.7048 9.68838 12.1239 9.73086 12.5063 9.81016C12.8857 9.88945 13.2086 10.0254 13.4805 10.2095C13.7495 10.3936 13.9619 10.6399 14.112 10.9458C14.2593 11.2488 14.3357 11.6283 14.3357 12.0786C14.3357 12.5657 14.2253 12.9679 14.0044 13.2936C13.7807 13.6192 13.4578 13.8826 13.0188 14.0894C13.6164 14.2593 14.0554 14.5623 14.3442 14.9871C14.6388 15.4176 14.7832 15.933 14.7832 16.5391C14.7832 17.0318 14.6897 17.4538 14.5 17.8078ZM22.3957 16.3125H17.3434C17.3434 16.8619 17.5331 17.3887 17.8191 17.6719C18.108 17.9522 18.5215 18.0938 19.0624 18.0938C19.4532 18.0938 19.7846 17.9947 20.0678 17.7993C20.3481 17.6039 20.5181 17.3972 20.5804 17.1819H22.2739C22.0021 18.023 21.5886 18.6234 21.0278 18.9859C20.4728 19.3484 19.7931 19.5297 19.0029 19.5297C18.4507 19.5297 17.9551 19.4391 17.5104 19.2663C17.0828 19.0992 16.6977 18.8443 16.3805 18.5158C16.0677 18.1785 15.826 17.7817 15.6696 17.349C15.4969 16.8704 15.4119 16.3663 15.4176 15.8594C15.4176 15.3354 15.5054 14.8483 15.6753 14.3952C16.001 13.5145 16.6778 12.8093 17.5416 12.4439C18.0032 12.2514 18.4988 12.1551 19.0001 12.1607C19.5948 12.1607 20.1103 12.274 20.5577 12.5063C20.9885 12.728 21.3625 13.0458 21.6509 13.4352C21.9369 13.8231 22.138 14.2649 22.2654 14.7634C22.3872 15.2533 22.4297 15.7688 22.3957 16.3125ZM18.9406 13.6051C18.6348 13.6051 18.3771 13.6589 18.1788 13.7637C17.9806 13.8685 17.8163 13.9987 17.6917 14.1488C17.573 14.2938 17.4853 14.4615 17.434 14.6416C17.3887 14.7917 17.3575 14.9446 17.3462 15.1004H20.4756C20.4303 14.6104 20.2604 14.2479 20.0338 13.9931C19.7959 13.741 19.4136 13.6051 18.9406 13.6051Z" fill="#82A765"/>
</svg>
